<svg class="text-pink" width="50" height="50" viewBox="0 0 50 50" fill="none" xmlns="http://www.w3.org/2000/svg">
							<path d="M37.1449 4.97022C36.5386 4.66956 35.9396 4.73612 35.5349 4.84152C35.1317 4.94645 34.7405 5.13597 34.3922 5.32947C33.7113 5.70762 32.8413 6.3055 31.809 7.01491L9.1608 22.5792C8.49876 23.034 7.89301 23.4503 7.46149 23.8259C7.0684 24.1682 6.38992 24.8263 6.37528 25.8257C6.3692 26.2417 6.46286 26.6532 6.64847 27.0255C7.0943 27.9201 7.99082 28.2195 8.49332 28.3578C9.04499 28.5097 9.77115 28.6226 10.5648 28.7461L18.0475 29.9103L13.063 38.7134C12.4699 39.7607 11.9669 40.649 11.6597 41.3403C11.5021 41.6953 11.351 42.0944 11.2841 42.5011C11.2163 42.9132 11.2083 43.5007 11.5471 44.0667C11.7835 44.4617 12.1204 44.7869 12.5235 45.0094C13.1011 45.3282 13.6879 45.2997 14.0973 45.2174C14.5013 45.1361 14.8951 44.9713 15.2442 44.8013C15.9244 44.4701 16.7944 43.9361 17.8203 43.3067L40.7311 29.2505C41.3947 28.8434 42.0057 28.4686 42.4465 28.1226C42.8538 27.8028 43.5459 27.1922 43.6203 26.213C43.6515 25.8022 43.5849 25.3899 43.4257 25.0099C43.0465 24.1042 42.1972 23.7428 41.7097 23.5678C41.1824 23.3782 40.4842 23.2153 39.7263 23.0382L31.6572 21.1522L36.7682 11.4183C37.3505 10.3093 37.8413 9.37477 38.1363 8.65395C38.2872 8.28508 38.429 7.87418 38.4855 7.46158C38.5424 7.04718 38.5376 6.44439 38.1674 5.87808C37.9134 5.48979 37.5605 5.17637 37.1449 4.97022Z" fill="#ff6399"></path>
						</svg>