<svg class="text-primary" width="50" height="50" viewBox="0 0 50 50" fill="none" xmlns="http://www.w3.org/2000/svg">
							<path d="M10.4979 31.473C10.1631 31.7097 9.86596 31.9497 9.63182 32.1838C7.74117 34.0744 7.08688 36.5528 6.87055 38.4055C6.76034 39.3494 6.75755 40.1826 6.78209 40.7813C6.7944 41.0822 7.01417 42.7876 7.03109 42.9622C7.20559 42.979 8.91109 43.1988 9.2118 43.2111C9.81073 43.2357 10.6437 43.233 11.5877 43.1226C13.4403 42.9063 15.9188 42.2519 17.8094 40.3613C18.0436 40.1272 18.2835 39.8301 18.5203 39.4953C18.6762 39.2749 18.7542 39.1647 18.9789 38.6159C19.4868 37.3761 19.2859 35.0169 18.5758 33.8809C18.2614 33.3782 17.987 33.1036 17.4383 32.5549C16.8895 32.0061 16.6151 31.7317 16.1123 31.4174C14.9762 30.7074 12.6172 30.5065 11.3774 31.0142C10.8286 31.239 10.7184 31.3169 10.4979 31.473Z" fill="#5f41fb"></path>
							<path fill-rule="evenodd" clip-rule="evenodd" d="M35.1041 7.29265C36.9837 6.94724 38.6268 6.82155 39.8045 6.78213C40.5789 6.75622 40.9662 6.74326 41.3677 6.86095C42.1349 7.08586 42.9093 7.86015 43.1341 8.62745C43.2518 9.02893 43.2389 9.41618 43.2129 10.1907C43.1735 11.3683 43.0479 13.0114 42.7024 14.8909C42.0406 18.492 40.5504 23.077 37.1997 26.8837L36.7606 35.3195C36.566 39.0589 33.477 41.9912 29.7324 41.9912C25.9624 41.9912 22.8622 39.0203 22.7014 35.2537L22.6185 33.3108L16.6843 27.3766L14.7413 27.2937C10.9748 27.133 8.00391 24.0326 8.00391 20.2626C8.00391 16.518 10.9361 13.4292 14.6757 13.2345L23.1114 12.7955C26.9181 9.44472 31.5031 7.95447 35.1041 7.29265ZM31.2491 22.9166C31.2491 25.2178 29.3837 27.0833 27.0824 27.0833C24.7812 27.0833 22.9158 25.2178 22.9158 22.9166C22.9158 20.6154 24.7812 18.7499 27.0824 18.7499C29.3837 18.7499 31.2491 20.6154 31.2491 22.9166Z" fill="#5f41fb"></path>
						</svg>